<svg width="597.9" height="97.3" viewBox="0 0 597.9 97.3" xmlns="http://www.w3.org/2000/svg"><g id="svgGroup" stroke-linecap="round" fill-rule="evenodd" font-size="9pt" stroke="#000" stroke-width="0.25mm" fill="none" style="stroke:#000;stroke-width:0.25mm;fill:none"><path d="M 76.6 77.2 L 64.3 77.2 L 64.2 30.8 L 41.2 69.2 L 35.4 69.2 L 12.4 31.4 L 12.4 77.2 L 0 77.2 L 0 7.2 L 10.7 7.2 L 38.5 53.6 L 65.8 7.2 L 76.5 7.2 L 76.6 77.2 Z" id="0" vector-effect="non-scaling-stroke"/><path d="M 132.3 23.8 L 144.3 23.8 L 119.3 81.5 A 42.868 42.868 0 0 1 116.966 86.435 Q 114.238 91.31 110.8 93.75 A 19.056 19.056 0 0 1 102.528 97.02 A 25.231 25.231 0 0 1 98.7 97.3 Q 94.7 97.3 90.8 96 A 20.568 20.568 0 0 1 87.451 94.562 A 15.293 15.293 0 0 1 84.4 92.4 L 89.4 83.2 Q 91.2 84.9 93.65 85.9 A 13.108 13.108 0 0 0 98.054 86.888 A 12.47 12.47 0 0 0 98.6 86.9 A 10.521 10.521 0 0 0 101.069 86.625 A 7.616 7.616 0 0 0 104.05 85.2 A 9.473 9.473 0 0 0 105.55 83.681 Q 106.827 82.088 107.964 79.58 A 30.327 30.327 0 0 0 108 79.5 L 108.9 77.4 L 85.6 23.8 L 98.6 23.8 L 115.4 63.3 L 132.3 23.8 Z" id="1" vector-effect="non-scaling-stroke"/><path d="M 270.8 7.2 L 283.2 7.2 L 260 77.2 L 246.2 77.2 L 228.9 25.4 L 211.3 77.2 L 197.4 77.2 L 174.2 7.2 L 187.7 7.2 L 205.1 60.4 L 223.2 7.2 L 235.2 7.2 L 252.9 60.7 L 270.8 7.2 Z" id="3" vector-effect="non-scaling-stroke"/><path d="M 344.1 54.5 L 302.2 54.5 Q 303.3 60.4 307.95 63.85 A 17.225 17.225 0 0 0 315.211 66.928 A 23.7 23.7 0 0 0 319.5 67.3 A 21.836 21.836 0 0 0 326.723 66.15 A 18.735 18.735 0 0 0 334 61.5 L 340.7 69.2 A 22.495 22.495 0 0 1 331.942 75.561 A 26.225 26.225 0 0 1 331.6 75.7 A 30.514 30.514 0 0 1 323.979 77.616 A 38.949 38.949 0 0 1 319.2 77.9 Q 310.4 77.9 303.7 74.4 Q 297 70.9 293.35 64.65 A 26.884 26.884 0 0 1 289.789 52.929 A 32.626 32.626 0 0 1 289.7 50.5 A 29.43 29.43 0 0 1 291.087 41.356 A 26.451 26.451 0 0 1 293.25 36.45 Q 296.8 30.2 303.1 26.7 A 28.024 28.024 0 0 1 314.811 23.29 A 34.031 34.031 0 0 1 317.3 23.2 A 30.244 30.244 0 0 1 325.553 24.292 A 26.098 26.098 0 0 1 331.25 26.65 Q 337.4 30.1 340.85 36.35 A 27.59 27.59 0 0 1 343.996 46.104 A 35.246 35.246 0 0 1 344.3 50.8 Q 344.3 52.1 344.1 54.5 Z M 302.1 46.2 L 332.4 46.2 A 15.958 15.958 0 0 0 330.737 40.877 A 14.268 14.268 0 0 0 327.5 36.8 A 14.377 14.377 0 0 0 319.338 33.307 A 19.062 19.062 0 0 0 317.3 33.2 A 16.832 16.832 0 0 0 312.081 33.98 A 14.307 14.307 0 0 0 307.15 36.75 A 14.616 14.616 0 0 0 302.356 44.85 A 18.953 18.953 0 0 0 302.1 46.2 Z" id="4" vector-effect="non-scaling-stroke"/><path d="M 368.2 70.3 L 368.2 77.2 L 356.3 77.2 L 356.3 3 L 368.8 3 L 368.8 30.3 Q 372 26.8 376.35 25 Q 380.7 23.2 385.9 23.2 A 30.661 30.661 0 0 1 394.153 24.276 A 26.313 26.313 0 0 1 399.85 26.6 Q 406 30 409.5 36.2 A 27.004 27.004 0 0 1 412.723 46.094 A 34.131 34.131 0 0 1 413 50.5 A 31.886 31.886 0 0 1 412.013 58.581 A 26.448 26.448 0 0 1 409.5 64.85 Q 406 71.1 399.85 74.5 A 27.372 27.372 0 0 1 389.001 77.76 A 33.648 33.648 0 0 1 385.9 77.9 A 27.658 27.658 0 0 1 379.55 77.195 A 23.623 23.623 0 0 1 375.85 76 Q 371.3 74.1 368.2 70.3 Z M 384.5 67.2 A 16.911 16.911 0 0 0 390.159 66.288 A 14.589 14.589 0 0 0 395.85 62.6 Q 400.3 58 400.3 50.5 A 20.536 20.536 0 0 0 399.628 45.108 A 15.207 15.207 0 0 0 395.85 38.4 A 14.891 14.891 0 0 0 385.563 33.828 A 19.874 19.874 0 0 0 384.5 33.8 A 16.955 16.955 0 0 0 379.257 34.591 A 15.207 15.207 0 0 0 376.4 35.85 Q 372.8 37.9 370.7 41.7 A 16.718 16.718 0 0 0 368.805 47.493 A 21.399 21.399 0 0 0 368.6 50.5 Q 368.6 55.5 370.7 59.3 Q 372.8 63.1 376.4 65.15 Q 380 67.2 384.5 67.2 Z" id="5" vector-effect="non-scaling-stroke"/><path d="M 418.8 71.9 L 423.6 62.4 A 27.047 27.047 0 0 0 427.971 64.741 A 36.389 36.389 0 0 0 432.25 66.25 A 36.574 36.574 0 0 0 440.511 67.658 A 33.417 33.417 0 0 0 442.2 67.7 A 31.839 31.839 0 0 0 445.971 67.497 Q 453.4 66.606 453.4 61.8 A 4.202 4.202 0 0 0 453.048 60.042 Q 452.591 59.038 451.542 58.387 A 5.926 5.926 0 0 0 450.55 57.9 Q 447.7 56.8 441.4 55.8 A 111.057 111.057 0 0 1 437.152 55.077 Q 435.263 54.715 433.637 54.321 A 47.432 47.432 0 0 1 430.65 53.5 Q 426.5 52.2 423.45 48.95 Q 420.4 45.7 420.4 39.9 A 14.552 14.552 0 0 1 421.963 33.11 Q 423.401 30.331 426.164 28.187 A 19.167 19.167 0 0 1 426.75 27.75 Q 433.1 23.2 443.9 23.2 Q 449.4 23.2 454.9 24.45 A 41.844 41.844 0 0 1 458.744 25.507 Q 461.713 26.488 463.9 27.8 L 459.1 37.3 A 29.212 29.212 0 0 0 445.411 33.337 A 35.129 35.129 0 0 0 443.8 33.3 A 29.429 29.429 0 0 0 440.768 33.446 Q 437.687 33.766 435.738 34.791 A 8.14 8.14 0 0 0 435.45 34.95 A 7.214 7.214 0 0 0 434.011 36.021 A 4.432 4.432 0 0 0 432.6 39.3 A 4.521 4.521 0 0 0 433.02 41.286 Q 433.732 42.764 435.65 43.55 Q 438.186 44.59 443.039 45.526 A 103.476 103.476 0 0 0 445.1 45.9 A 106.352 106.352 0 0 1 449.403 46.658 Q 452.973 47.368 455.6 48.2 Q 459.7 49.5 462.65 52.6 Q 465.266 55.349 465.562 60.142 A 20.393 20.393 0 0 1 465.6 61.4 Q 465.6 68.9 459.1 73.4 Q 453.933 76.978 445.796 77.711 A 48.997 48.997 0 0 1 441.4 77.9 Q 434.9 77.9 428.7 76.2 A 44.643 44.643 0 0 1 424.443 74.815 Q 422.383 74.02 420.705 73.088 A 21.283 21.283 0 0 1 418.8 71.9 Z" id="6" vector-effect="non-scaling-stroke"/><path d="M 476.4 77.2 L 476.4 23.8 L 488.9 23.8 L 488.9 77.2 L 476.4 77.2 Z M 479.754 14.528 A 8.874 8.874 0 0 0 482.7 15 Q 486.2 15 488.45 12.75 A 7.561 7.561 0 0 0 490.102 10.324 A 7.978 7.978 0 0 0 490.7 7.2 A 8.102 8.102 0 0 0 490.691 6.817 A 6.572 6.572 0 0 0 488.4 2.05 A 7.812 7.812 0 0 0 485.555 0.421 A 9.318 9.318 0 0 0 482.7 0 A 10.359 10.359 0 0 0 482.172 0.014 A 7.916 7.916 0 0 0 477 2.15 A 7.222 7.222 0 0 0 475.368 4.356 A 7.292 7.292 0 0 0 474.7 7.5 A 8.705 8.705 0 0 0 474.705 7.798 A 6.99 6.99 0 0 0 477 12.85 A 7.735 7.735 0 0 0 479.754 14.528 Z" id="7" vector-effect="non-scaling-stroke"/><path d="M 533.9 65.4 L 537.4 74.3 A 13.667 13.667 0 0 1 534.103 76.275 A 17.237 17.237 0 0 1 532.05 77 A 23.855 23.855 0 0 1 526.053 77.892 A 26.848 26.848 0 0 1 525.4 77.9 A 27.062 27.062 0 0 1 520.056 77.405 Q 516.833 76.755 514.351 75.254 A 14.596 14.596 0 0 1 511.8 73.3 A 14.742 14.742 0 0 1 507.87 66.633 Q 507.19 64.3 507.042 61.503 A 30.195 30.195 0 0 1 507 59.9 L 507 34.2 L 498.2 34.2 L 498.2 24.2 L 507 24.2 L 507 12 L 519.5 12 L 519.5 24.2 L 533.8 24.2 L 533.8 34.2 L 519.5 34.2 L 519.5 59.6 A 12.845 12.845 0 0 0 519.686 61.857 Q 520.094 64.141 521.4 65.55 A 6.112 6.112 0 0 0 524.347 67.288 Q 525.494 67.6 526.9 67.6 A 13.222 13.222 0 0 0 530.166 67.216 A 9.928 9.928 0 0 0 533.9 65.4 Z" id="8" vector-effect="non-scaling-stroke"/><path d="M 597.7 54.5 L 555.8 54.5 Q 556.9 60.4 561.55 63.85 A 17.225 17.225 0 0 0 568.811 66.928 A 23.7 23.7 0 0 0 573.1 67.3 A 21.836 21.836 0 0 0 580.323 66.15 A 18.735 18.735 0 0 0 587.6 61.5 L 594.3 69.2 A 22.495 22.495 0 0 1 585.542 75.561 A 26.225 26.225 0 0 1 585.2 75.7 A 30.514 30.514 0 0 1 577.579 77.616 A 38.949 38.949 0 0 1 572.8 77.9 Q 564 77.9 557.3 74.4 Q 550.6 70.9 546.95 64.65 A 26.884 26.884 0 0 1 543.389 52.929 A 32.626 32.626 0 0 1 543.3 50.5 A 29.43 29.43 0 0 1 544.687 41.356 A 26.451 26.451 0 0 1 546.85 36.45 Q 550.4 30.2 556.7 26.7 A 28.024 28.024 0 0 1 568.411 23.29 A 34.031 34.031 0 0 1 570.9 23.2 A 30.244 30.244 0 0 1 579.153 24.292 A 26.098 26.098 0 0 1 584.85 26.65 Q 591 30.1 594.45 36.35 A 27.59 27.59 0 0 1 597.596 46.104 A 35.246 35.246 0 0 1 597.9 50.8 Q 597.9 52.1 597.7 54.5 Z M 555.7 46.2 L 586 46.2 A 15.958 15.958 0 0 0 584.337 40.877 A 14.268 14.268 0 0 0 581.1 36.8 A 14.377 14.377 0 0 0 572.938 33.307 A 19.062 19.062 0 0 0 570.9 33.2 A 16.832 16.832 0 0 0 565.681 33.98 A 14.307 14.307 0 0 0 560.75 36.75 A 14.616 14.616 0 0 0 555.956 44.85 A 18.953 18.953 0 0 0 555.7 46.2 Z" id="9" vector-effect="non-scaling-stroke"/></g></svg>